<?xml version="1.0" encoding="UTF-8" standalone="no"?>
<!-- Created with Inkscape (http://www.inkscape.org/) -->

<svg
   xmlns:dc="http://purl.org/dc/elements/1.1/"
   xmlns:cc="http://creativecommons.org/ns#"
   xmlns:rdf="http://www.w3.org/1999/02/22-rdf-syntax-ns#"
   xmlns:svg="http://www.w3.org/2000/svg"
   xmlns="http://www.w3.org/2000/svg"
   xmlns:sodipodi="http://sodipodi.sourceforge.net/DTD/sodipodi-0.dtd"
   xmlns:inkscape="http://www.inkscape.org/namespaces/inkscape"
   width="1430"
   height="450"
   id="svg37036"
   version="1.1"
   inkscape:version="0.48.5 r10040"
   inkscape:export-filename="/home/valessio/Documentos/Hackathon Mexico/images/footer.png"
   inkscape:export-xdpi="90"
   inkscape:export-ydpi="90"
   sodipodi:docname="Novo documento 22">
  <defs
     id="defs37038">
    <clipPath
       clipPathUnits="userSpaceOnUse"
       id="clipPath996">
      <path
         inkscape:connector-curvature="0"
         d="m 0,2660 800,0 L 800,0 0,0 0,2660 z"
         id="path998" />
    </clipPath>
  </defs>
  <sodipodi:namedview
     id="base"
     pagecolor="#ffffff"
     bordercolor="#666666"
     borderopacity="1.0"
     inkscape:pageopacity="0.0"
     inkscape:pageshadow="2"
     inkscape:zoom="0.7"
     inkscape:cx="871.9815"
     inkscape:cy="13.294625"
     inkscape:document-units="px"
     inkscape:current-layer="layer1"
     showgrid="false"
     fit-margin-top="0"
     fit-margin-left="0"
     fit-margin-right="0"
     fit-margin-bottom="0"
     inkscape:window-width="1920"
     inkscape:window-height="1011"
     inkscape:window-x="0"
     inkscape:window-y="27"
     inkscape:window-maximized="1" />
  <metadata
     id="metadata37041">
    <rdf:RDF>
      <cc:Work
         rdf:about="">
        <dc:format>image/svg+xml</dc:format>
        <dc:type
           rdf:resource="http://purl.org/dc/dcmitype/StillImage" />
        <dc:title></dc:title>
      </cc:Work>
    </rdf:RDF>
  </metadata>
  <g
     inkscape:label="Camada 1"
     inkscape:groupmode="layer"
     id="layer1"
     transform="translate(588.95641,-308.6991)">
    <path
       inkscape:connector-curvature="0"
       d="m 294.68433,696.56639 c -1.21719,-2.68374 -1.25555,-6.54282 1.29217,-9.00509 l 0,12.21023 c 0,-1.10035 -0.81959,-2.16931 -1.29217,-3.20514 m -27.48786,-70.20799 -5.14427,0 c 0,-5.10068 -0.15346,-7.95357 0.11684,-11.44122 0.0663,-0.8161 1.50491,-2.24778 2.44135,-2.38729 0.75856,-0.11858 2.4274,1.41075 2.47099,2.07341 0.24239,3.79281 0.11509,6.65442 0.11509,11.7551 m -4.39094,-26.78684 3.82769,0 0,8.92487 -3.82769,0 0,-8.92487 z m -158.14193,26.78684 -5.144273,0 c 0,-5.10068 -0.129043,-8.09657 0.116836,-11.88415 0.04185,-0.6609 1.708947,-2.06294 2.469247,-1.94436 0.93818,0.13951 2.37858,1.70372 2.43787,2.51808 0.27029,3.49288 0.12032,6.20975 0.12032,11.31043 m -5.17915,-26.78684 5.10417,0 0,8.92487 -5.10417,0 0,-8.92487 z m -56.138842,135.2473 -44.6592663,0 0,-135.2473 44.6592663,0 0,135.2473 z m -101.397983,-7.65887 -47.070975,0 c -0.1831,0 -0.38538,-0.43247 -0.38887,-0.75682 -0.33307,-16.80172 -0.0697,-33.40115 -0.19705,-50.20636 -0.0994,-13.66981 10.401894,-24.40129 23.459629,-24.55823 13.335002,-0.16567 24.27225,10.47687 24.507666,24.17285 0.216234,12.37764 0.204027,24.37513 -0.02965,36.75975 -0.09417,4.82864 0.347021,10.76287 -0.280755,14.58881 m 881.295945,31.94855 -319.36519,-34.14751 0.0802,-84.92933 0,-159.81774 c 3.82943,-0.70102 3.25397,-2.54075 2.35765,-5.80693 -1.13348,-4.12937 -1.35669,-8.53252 -1.79614,-12.83452 -0.12381,-1.23986 0.69404,-2.77442 0.20926,-3.73004 -0.74287,-1.48748 -2.27394,-2.5826 -3.43358,-3.86605 -0.65045,-0.7202 -1.76475,-1.47876 -1.77696,-2.23384 -0.0732,-2.74651 0.16741,-5.20356 -2.09433,-7.6484 -1.17184,-1.26427 -0.40979,-4.302 -0.55976,-6.53758 -0.0593,-0.90853 -0.20577,-1.8066 -0.30517,-2.66456 -6.7608,-0.6365 -6.68756,-0.64522 -7.55772,-7.50018 -0.65219,-5.14427 -1.45086,-10.26936 -2.37683,-15.36481 -0.16741,-0.90155 -1.19801,-1.71243 -1.97226,-2.40647 -1.79614,-1.61304 -3.68296,-3.13539 -5.52966,-4.69437 0.21972,-0.20403 0.4377,-0.4098 0.65567,-0.61731 -0.54232,0.15345 -1.41772,0.58941 -1.56769,0.41328 -2.86161,-3.34116 -3.44928,-14.4493 -1.45609,-16.82962 -0.40282,-2.07689 -0.98526,-3.69515 -0.99572,-5.31342 -0.0977,-11.45342 -0.0227,-22.90509 -0.15172,-34.35503 -0.0157,-1.15615 -0.27726,-2.28266 -0.75333,-3.4423 -0.29645,-0.71845 -0.69927,-1.46655 -0.72194,-2.21814 -0.0837,-2.94531 -0.0331,-5.89063 -0.0331,-9.03474 1.02013,0.0872 1.10558,0.15695 2.04899,0.23367 -0.18136,-0.48303 -0.27553,-0.83703 -0.31912,-0.8318 -1.83276,0.23019 -2.38032,-0.37666 -2.31928,-2.36288 0.15868,-5.17391 0,-10.5693 -0.0994,-15.53221 l -0.0366,0 c -0.0994,4.96291 -0.25983,10.3583 -0.0994,15.53221 0.0593,1.98622 -0.48827,2.59307 -2.32103,2.36288 -0.0488,-0.005 -0.1395,0.34877 -0.31911,0.8318 0.93992,-0.0767 1.03583,-0.14648 2.04899,-0.23367 0,3.14411 0.0488,6.08943 -0.0331,9.03474 -0.0209,0.75159 -0.42026,1.49969 -0.72194,2.21814 -0.48304,1.15964 -0.74461,2.28615 -0.75333,3.4423 -0.12207,11.44994 -0.0541,22.90161 -0.14997,34.35503 -0.0122,1.61827 -0.5929,3.23653 -1.00095,5.31342 1.99667,2.38032 1.40552,13.48846 -1.45261,16.82962 -0.1552,0.17613 -1.02711,-0.25983 -1.5642,-0.41328 0.21972,0.20751 0.43944,0.41328 0.6487,0.61731 -1.84845,1.55898 -3.73178,3.08133 -5.52617,4.69437 -0.77426,0.69404 -1.80486,1.50492 -1.97052,2.40647 -0.92771,5.09545 -1.72987,10.22054 -2.37857,15.36481 -0.87017,6.85496 -0.79518,6.86368 -7.55772,7.50018 -0.0942,0.85796 -0.24763,1.75603 -0.30517,2.66456 -0.14823,2.23558 0.61382,5.27331 -0.55628,6.53758 -2.26174,2.44484 -2.01412,4.90189 -2.08212,7.6484 -0.0227,0.75508 -1.12826,1.51364 -1.7787,2.23384 -1.16139,1.28345 -2.67677,2.37857 -3.41964,3.86605 -0.47955,0.95562 0.36969,2.49018 0.24763,3.73004 -0.44468,4.302 -0.78821,8.70515 -1.91995,12.83452 -0.89109,3.26618 -0.24762,5.10591 2.30533,5.80693 l 0,144.8697 -19.14367,0 0,33.17446 -8.93011,0 0,-116.74535 -51.03816,22.30522 0,-138.79424 -26.15733,-48.31954 0.11684,13.64365 -9.77935,0.8196 -1.68628,-10.20135 -11.72719,0.34004 -7.48449,8.79758 -0.73066,23.17713 -10.17694,0 0,273.56373 c -1.2695,-0.11161 -3.57658,-0.21624 -5.68834,-0.34005 -0.25111,-9.33816 -0.47781,-18.60309 -0.65394,-27.87324 -0.14299,-7.28046 -0.24239,-14.56091 -0.0453,-21.83264 0.0593,-1.91123 1.39506,-3.78933 2.19199,-5.82262 -4.13112,-0.84053 -0.76205,-5.39888 -2.95752,-8.92663 -0.42026,1.87984 -0.64522,2.93486 -0.88238,3.99161 -0.15694,0.0366 -0.31912,0.082 -0.47432,0.12207 -0.44642,-2.38904 -1.19103,-4.76063 -1.27124,-7.16013 -0.18485,-5.76508 -0.0488,-11.53712 -0.0628,-17.30394 -0.007,-2.81453 -0.20751,-5.6465 0.0139,-8.44359 0.0837,-1.12476 1.02886,-2.19198 1.63745,-3.26268 0.4377,-0.77775 0.96084,-1.50492 1.63745,-2.54075 -3.55042,-0.56674 -4.27934,-3.06215 -3.75968,-5.57849 0.81785,-3.97242 -1.7508,-6.9003 -2.44658,-11.49527 -1.32531,2.36288 -2.15885,3.85733 -3.16853,5.66917 -3.7248,-4.22354 -6.33007,-8.26223 -4.08751,-14.01684 1.41947,-3.6411 -4.05962,-13.2077 -7.95183,-14.47895 -0.85796,-0.2825 -1.72813,-0.55105 -3.22781,-1.02188 3.0604,-2.51459 4.20086,-4.46418 0.98874,-6.98575 -1.55374,-1.22067 -0.62603,-6.88112 0.99573,-8.50113 -0.69579,-0.565 -1.39855,-1.13348 -2.15362,-1.74033 -0.65394,0.55105 -1.3968,1.1858 -2.1449,1.82055 1.4805,1.54851 2.45355,7.11305 1.00792,8.32326 -2.97321,2.49541 -2.31579,4.49208 0.2424,6.46434 -0.143,0.38713 -0.18311,0.75159 -0.29471,0.77949 -7.69374,1.56247 -8.9057,7.9588 -10.17869,14.06567 -0.43595,2.08386 0.89982,4.55137 0.41155,6.6021 -0.72718,3.0203 -2.35939,5.82785 -3.60448,8.72609 -0.36621,-0.10638 -0.73241,-0.20926 -1.10384,-0.31389 -0.76554,-1.49271 -1.52933,-2.98194 -2.3001,-4.47639 -0.28773,0 -0.58069,-0.005 -0.86668,-0.005 0.19705,3.40394 -3.08831,5.60813 -2.20245,9.49685 0.59116,2.58085 0.48827,5.84878 -3.2871,6.62826 0,0.37492 -0.0889,0.72718 0.0139,0.80216 5.17741,3.64982 1.91123,9.04869 2.57562,13.55124 0.76031,5.20356 0.28948,10.60941 0.12556,15.91586 -0.0889,2.84766 -0.6644,5.67788 -1.68279,8.49066 -0.26332,-1.10384 -0.5214,-2.20244 -0.87714,-3.71608 -2.65584,2.6942 1.2416,7.5647 -4.43803,8.71039 3.94627,1.83973 3.48067,4.6124 3.34465,7.80185 -0.33307,7.73908 0.0279,15.51304 0.0785,23.26258 0.0279,3.66028 -0.005,7.31882 -0.014,10.98084 -0.007,5.48432 -0.0122,5.62557 -5.38666,5.41457 -2.06817,-0.0855 -4.12065,-0.91028 -6.13651,-1.54328 -0.45165,-0.14125 -1.09686,-1.22068 -1.01141,-1.32182 2.12223,-2.46402 -1.35321,-3.93929 -1.49795,-6.17836 -0.52314,1.99319 -1.03757,3.98289 -1.79962,6.89333 -1.05676,0.66788 -2.39427,-0.0471 -2.81802,-2.19199 -0.26506,-1.33925 -0.33655,-3.00634 0.23193,-4.16599 1.68977,-3.43881 0.26855,-6.07896 -1.22242,-9.10797 -1.10035,-2.23384 -1.06896,-5.02395 -2.2722,-7.58214 -0.64347,2.69769 -1.28868,5.3919 -1.93564,8.09308 -0.2389,-0.0453 -0.46908,-0.0942 -0.7045,-0.13254 -0.41154,-1.86937 -0.81785,-3.74224 -1.22416,-5.5872 -0.71497,-0.24762 -1.76301,-0.30866 -2.35242,-0.85796 -4.06659,-3.77363 -7.74954,-8.01809 -12.11956,-11.38367 -4.71006,-3.62889 -6.19754,-5.26634 -6.64396,-11.44818 -0.3662,0.65044 -0.54233,0.95212 -1.07419,1.90076 -0.77775,-2.08735 -1.91472,-3.75968 -1.93041,-5.44595 -0.0331,-4.56358 0.68881,-9.1446 0.52663,-13.69946 -0.0663,-1.91646 -1.11081,-4.58451 -2.58783,-5.50525 -2.54075,-1.58862 -2.7221,-3.41963 -2.52505,-5.87667 0.082,-0.98352 -0.37667,-2.01063 -0.58941,-3.0203 -0.32959,0.014 -0.65917,0.0331 -0.98875,0.0436 -0.32261,-0.0105 -0.65045,-0.0296 -0.97828,-0.0436 -0.21449,1.00967 -0.67486,2.03678 -0.5929,3.0203 0.19879,2.45704 0.0174,4.28805 -2.52157,5.87667 -1.47527,0.92074 -2.52505,3.58879 -2.58783,5.50525 -0.16741,4.55486 0.55628,9.13588 0.5214,13.69946 -0.0139,1.68627 -1.15441,3.3586 -1.92518,5.44595 -0.53884,-0.94864 -0.71147,-1.25032 -1.07942,-1.90076 -0.44468,6.18184 -1.93216,7.81929 -6.64047,11.44818 -4.36828,3.36558 -8.05297,7.61004 -12.11956,11.38367 -0.5929,0.5493 -1.63745,0.61034 -2.35416,0.85796 -0.40457,1.84496 -0.81785,3.71783 -1.22416,5.5872 -0.23193,0.0384 -0.47084,0.0872 -0.70276,0.13254 -0.64522,-2.70118 -1.29217,-5.39539 -1.93565,-8.09308 -1.19974,2.55819 -1.17359,5.3483 -2.27568,7.58214 -1.48923,3.02901 -2.91218,5.66916 -1.21893,9.10797 0.56674,1.15965 0.49699,2.82674 0.23018,4.16599 -0.42375,2.1449 -1.76649,2.85987 -2.81278,2.19199 -0.76205,-2.91044 -1.28171,-4.90014 -1.79963,-6.89333 -0.14822,2.23907 -3.62191,3.71434 -1.5084,6.17836 0.0907,0.10114 -0.54756,1.18057 -1.0027,1.32182 -2.0176,0.633 -4.07531,1.45783 -6.13999,1.54328 -5.37446,0.211 -5.37621,0.0697 -5.38492,-5.41457 -0.009,-3.66202 -0.0453,-7.32056 -0.0174,-10.98084 0.0541,-7.74954 0.42026,-15.5235 0.0854,-23.26258 -0.14125,-3.18945 -0.60685,-5.96212 3.34117,-7.80185 -5.67789,-1.14569 -1.78393,-6.01619 -4.43803,-8.71039 -0.35574,1.51364 -0.61906,2.61224 -0.8754,3.71608 -1.02013,-2.81278 -1.59908,-5.643 -1.68453,-8.49066 -0.16566,-5.30645 -0.63649,-10.7123 0.1273,-15.91586 0.66265,-4.50255 -2.60876,-9.90142 2.57039,-13.55124 0.10638,-0.075 0.014,-0.42724 0.014,-0.80216 -3.76491,-0.77948 -3.87477,-4.04741 -3.28361,-6.62826 0.88586,-3.88872 -2.39776,-6.09291 -2.20071,-9.49685 -0.28773,0 -0.57894,0.005 -0.87365,0.005 -0.76554,1.49445 -1.53107,2.98368 -2.29487,4.47639 -0.36969,0.10463 -0.73938,0.20751 -1.10907,0.31389 -1.2416,-2.89824 -2.87207,-5.70579 -3.59401,-8.72609 -0.49176,-2.05073 0.84052,-4.51824 0.40631,-6.6021 -1.27299,-6.10687 -2.47972,-12.5032 -10.17171,-14.06567 -0.1151,-0.0279 -0.15695,-0.39236 -0.30169,-0.77949 2.55645,-1.97226 3.21561,-3.96893 0.23542,-6.46434 -1.43691,-1.21021 -0.47432,-6.77475 1.02014,-8.32326 -0.7481,-0.63475 -1.49446,-1.2695 -2.15014,-1.82055 -0.7603,0.60685 -1.45609,1.17533 -2.157103,1.74033 1.625243,1.62001 2.552953,7.28046 0.997463,8.50113 -3.205141,2.52157 -2.073401,4.47116 0.99224,6.98575 -1.50492,0.47083 -2.3716,0.73938 -3.234792,1.02188 -3.890465,1.27125 -9.364321,10.83785 -7.946594,14.47895 2.247786,5.75461 -0.362715,9.7933 -4.085774,14.01684 -1.011416,-1.81184 -1.84845,-3.30629 -3.163292,-5.66917 -0.699272,4.59497 -3.273152,7.52285 -2.453556,11.49527 0.521402,2.51634 -0.207515,5.01175 -3.756192,5.57849 0.673116,1.03408 1.192774,1.763 1.635705,2.54075 0.605106,1.0707 1.553745,2.13792 1.639192,3.26268 0.21449,2.79709 0.01569,5.62906 0.007,8.44359 -0.01221,5.76682 0.123812,11.53886 -0.06627,17.30394 -0.07324,2.3995 -0.823084,4.77109 -1.266014,7.16013 l -0.479551,-0.12207 c -0.231928,-1.05675 -0.467344,-2.11177 -0.88063,-3.99161 -2.198959,3.52775 1.157897,8.0861 -2.971472,8.92663 0.795183,2.03329 2.118743,3.91139 2.174546,5.82262 0.197052,7.27173 0.0558,14.55218 -0.07673,21.83264 -0.181358,9.27015 -0.481295,18.53508 -0.734149,27.87324 -2.340209,0.14299 -4.249693,0.24937 -6.490503,0.37667 2.699435,2.37857 3.34988,6.74161 2.017601,9.68518 -1.110814,2.45007 -1.667093,5.04662 -2.943571,7.96578 l 0,-130.48667 -95.699174,0 0,51.05909 c -1.267758,-1.00619 -2.040271,-1.58513 -4.532192,-1.38285 0.366202,-4.42582 0.301681,-4.46593 -3.316748,-4.96815 -0.824828,-3.34639 1.780441,-7.92392 -3.538214,-9.72878 1.503174,-3.28013 0.711479,-5.22449 -2.912182,-5.34307 -0.298193,-7.53156 -2.561673,-14.23307 -6.391105,-20.43933 -5.076264,-8.23432 -10.591971,-15.98735 -20.310288,-19.35118 -0.418517,-0.14648 -1.133484,-0.45514 -1.129996,-0.66963 0.116836,-3.7527 -2.432631,-4.48162 -5.315168,-4.50604 -0.905043,-10.24146 -2.668047,-13.17282 -7.735592,-12.8816 -5.217513,0.29645 -6.497478,2.69769 -6.996211,12.90602 l -5.367482,0 c -3.362088,1.27473 -1.482249,5.07801 -4.455464,6.45214 -10.32517,4.77632 -15.3526,14.46325 -20.32424,23.7491 -2.29487,4.2898 -2.5268,9.7096 -3.76142,14.8748 -3.78061,-0.26158 -3.54519,2.26871 -2.83545,4.24271 -1.25556,2.16583 -2.51111,3.61843 -2.94183,5.27855 -0.44816,1.71592 -0.10114,3.64633 -0.10114,5.52966 -0.57895,0.0436 -0.919,0.0837 -1.25904,0.082 -3.83467,-0.0279 -1.00967,3.43882 -2.44135,4.66123 -1.39332,1.18755 -4.43105,-0.35922 -4.50429,3.2191 -0.23891,11.94169 0.23018,23.88338 0.0401,35.83378 -0.20578,13.45359 0.40282,26.91066 0.40282,40.37121 l 0,3.95325 -0.47258,11.16045 c -0.0855,-0.0837 -0.36969,-0.17612 -0.39933,-0.27378 -1.52759,-5.20182 -2.92788,-10.48385 -4.07008,-15.77984 -0.61906,-2.86161 -0.85099,-5.82087 -1.30438,-9.3556 -6.22196,5.56802 -0.58767,11.9103 -2.95055,17.56028 -0.54232,-0.70276 -0.98177,-0.99397 -1.0149,-1.3253 -0.30866,-3.43707 0.5493,-7.32928 -3.85385,-9.06787 -0.31563,-0.12381 -0.37666,-1.0306 -0.44293,-1.57642 -0.55453,-4.445 -1.55897,-8.89872 -1.51189,-13.34023 0.0767,-7.28743 1.06373,-14.56091 1.23637,-21.85357 0.10812,-4.6717 -0.70625,-9.36781 -0.84227,-14.0552 -0.58766,-20.33819 -1.28694,-40.67812 -1.47004,-61.02503 -0.0418,-4.97338 0.21624,-11.1343 2.98717,-14.68995 4.867,-6.24114 0.8475,-11.68709 1.8345,-17.37021 -0.61731,-0.15345 -1.23986,-0.30342 -1.86415,-0.45339 -0.80215,1.97226 -1.60257,3.94627 -2.72908,6.72417 -0.24413,-4.54614 -0.29645,-8.21339 -0.70101,-11.82659 -0.29122,-2.61573 -0.52838,-5.46688 -1.74034,-7.69723 -2.19896,-4.06659 -4.56706,-7.8036 -0.74286,-12.15269 0.54407,0.88237 1.0986,1.79614 1.53107,2.50064 0.73764,-1.46132 1.65837,-2.65061 1.906,-3.96545 0.25808,-1.31659 0.24239,-2.97147 -0.36097,-4.11019 -1.22591,-2.30533 -2.92614,-4.35606 -4.98036,-7.29963 3.08831,0.79867 5.05011,1.30612 7.01191,1.81706 -0.2982,-1.37065 -1.01316,-2.08387 -1.86589,-2.35939 -3.77189,-1.2294 -4.84957,-3.88175 -2.69769,-7.14793 0.85621,-1.29042 2.02109,-2.37159 2.93311,-3.62889 1.82578,-2.5268 3.58006,-5.1094 5.90981,-8.46102 -1.66012,0.30866 -2.00191,0.27378 -2.20245,0.42549 -2.88602,2.17106 -5.59767,4.63159 -8.67726,6.47307 -2.4832,1.48399 -6.43121,1.30786 -4.46418,6.53584 -0.63649,-0.15694 -1.27473,-0.32261 -1.91471,-0.47432 -0.11858,-1.97924 -0.23019,-3.95324 -0.36272,-6.24462 -3.92011,2.57039 -6.07547,-0.91202 -8.77316,-3.2191 -2.00366,-1.71243 -4.21308,-3.19294 -6.77998,-5.12335 -0.11684,1.48225 -0.61034,2.76745 -0.18833,3.26618 5.36225,6.36146 10.86051,12.60434 16.61164,19.20471 -0.96434,2.23383 -2.16757,5.02046 -3.61146,8.3686 1.37588,2.14315 3.23305,5.03266 5.17915,8.06517 l -0.0401,1.70023 c -0.61732,1.93389 -1.93216,3.84338 -3.00984,5.82959 -1.20847,2.23035 -1.44737,5.08673 -1.73859,7.69723 -0.40457,3.6132 -0.45165,7.28045 -0.70102,11.82659 -1.12999,-2.7779 -1.92343,-4.75191 -2.72559,-6.72417 -0.62603,0.14997 -1.24334,0.29994 -1.86763,0.45339 0.98874,5.68312 -3.03425,11.12907 1.8345,17.37021 2.77267,3.55565 3.02902,9.71657 2.98542,14.68995 -0.17787,20.34691 -0.88063,40.68684 -1.46481,61.02503 -0.13776,4.68739 -0.95387,9.02253 -0.84575,13.69946 0.12904,5.42154 0.70799,12.06724 1.02885,15.89493 l -22.47437,0 0,-20.55965 -59.96653,19.14193 0,47.49297 -320.41672,34.35851 320.41672,1.54329 0,-0.32087 29.495,0 29.77052,0 4.19563,0 20.81425,0 4.76063,0 2.21814,0 4.60369,0 22.14479,0 -0.0732,0 106.502149,0 89.311557,0 6.380642,0 114.626612,0 112.91592,0 7.79489,0 24.09961,0 36.15465,0 34.73692,0 16.2995,0 27.64654,0 15.59325,0 14.44059,0 0.71148,0 30.2117,0 0,0.32087 319.28498,-1.54329 z"
       style="fill:#3a0c2e;fill-opacity:1;fill-rule:nonzero;stroke:none"
       id="path1002" />
  </g>
</svg>
